<svg width="24" height="24" fill="none" xmlns="http://www.w3.org/2000/svg"><path d="M12 17.3l-3.7 2.825a.874.874 0 01-.6.213 1.044 1.044 0 01-.575-.188 1.148 1.148 0 01-.387-.475.839.839 0 01-.013-.65L8.15 14.4l-3.625-2.575a.845.845 0 01-.375-.525 1.04 1.04 0 01.025-.6 1.16 1.16 0 01.35-.488.89.89 0 01.6-.212H9.6l1.45-4.8c.083-.234.213-.413.388-.538A.943.943 0 0112 4.475c.2 0 .388.062.563.188.175.125.304.304.387.537L14.4 10h4.475a.89.89 0 01.6.213c.167.142.283.304.35.487s.075.383.025.6a.845.845 0 01-.375.525L15.85 14.4l1.425 4.625c.083.233.08.45-.012.65-.091.2-.22.358-.388.475a1.062 1.062 0 01-.575.188.867.867 0 01-.6-.213L12 17.3z" fill="#000"/></svg>